<?xml version="1.0" standalone="no"?>
<!DOCTYPE svg PUBLIC "-//W3C//DTD SVG 20010904//EN"
 "http://www.w3.org/TR/2001/REC-SVG-20010904/DTD/svg10.dtd">
<svg version="1.0" xmlns="http://www.w3.org/2000/svg"
 width="260.000000pt" height="260.000000pt" viewBox="0 0 260.000000 260.000000"
 preserveAspectRatio="xMidYMid meet">
<metadata>
Created by potrace 1.14, written by Peter Selinger 2001-2017
</metadata>
<g transform="translate(0.000000,260.000000) scale(0.100000,-0.100000)"
fill="#000000" stroke="none">
<path d="M819 2276 c-94 -33 -170 -108 -194 -190 -29 -97 -30 -96 89 -96 l103
0 7 41 c14 86 102 128 161 77 54 -48 40 -142 -34 -236 -21 -26 -101 -114 -179
-196 l-142 -150 0 -68 0 -68 310 0 310 0 0 80 0 80 -170 0 c-160 0 -170 1
-161 18 6 9 62 73 126 142 147 158 180 219 180 330 -1 164 -103 251 -294 250
-42 -1 -92 -7 -112 -14z"/>
<path d="M1524 2261 c-71 -33 -115 -82 -146 -161 -30 -77 -38 -362 -14 -473
37 -168 136 -247 305 -247 140 0 240 74 281 208 19 64 21 90 18 269 -3 193 -4
200 -31 258 -56 121 -143 175 -280 175 -59 0 -83 -5 -133 -29z m185 -147 c44
-31 51 -69 51 -278 0 -252 -15 -296 -98 -296 -43 0 -78 32 -91 84 -14 57 -14
369 0 420 21 76 84 107 138 70z"/>
<path d="M1523 1170 c-163 -65 -206 -276 -79 -388 21 -18 37 -34 35 -36 -2 -1
-21 -15 -41 -30 -22 -16 -49 -51 -64 -82 -23 -47 -26 -63 -22 -119 13 -154
121 -235 314 -235 190 0 303 92 304 248 0 93 -33 159 -103 202 l-28 17 36 27
c64 49 93 137 74 224 -14 70 -58 126 -121 159 -45 23 -67 27 -153 30 -82 3
-109 -1 -152 -17z m194 -162 c28 -31 36 -71 23 -118 -12 -45 -33 -60 -83 -60
-52 0 -72 29 -72 102 0 51 4 63 24 79 32 26 82 25 108 -3z m17 -379 c20 -24
26 -41 26 -81 0 -41 -5 -54 -29 -79 -31 -31 -83 -39 -122 -19 -55 30 -65 144
-14 187 18 16 39 23 70 23 36 0 47 -5 69 -31z"/>
<path d="M800 914 c-210 -338 -193 -305 -185 -375 l7 -59 171 -2 172 -3 3 -93
3 -92 99 0 99 0 3 93 3 92 43 3 42 3 0 80 0 79 -45 0 -45 0 0 270 0 270 -102
0 -103 0 -165 -266z m167 -271 c-3 -2 -38 -3 -79 -1 l-74 3 75 130 76 130 3
-129 c1 -71 1 -131 -1 -133z"/>
</g>
</svg>
